<svg width="16" height="16" viewBox="0 0 16 16" fill="none" xmlns="http://www.w3.org/2000/svg">
<path d="M7 1H6V2H5V3H4V4H3V5H1V6H0V9H1V10H2V9H1V6H3V5H4V4H5V3H6V2H7V1Z" fill="#808000"/>
<path d="M3 10H4V11H3V10Z" fill="#808000"/>
<path d="M5 12H4V11H5V12Z" fill="#808000"/>
<path d="M6 13H5V12H6V13Z" fill="#808000"/>
<path d="M7 14H6V13H7V14Z" fill="#808000"/>
<path d="M7 14H8V15H7V14Z" fill="#808000"/>
<path fill-rule="evenodd" clip-rule="evenodd" d="M7 2H6V3H5V4H4V5H3V6H4V7H3V8H4V9H3V10H4V11H5V12H6V11H5V10H6V9H5V8H6V7H5V6H6V5H5V4H6V3H7V2ZM5 5V6H4V5H5ZM5 7H4V8H5V7ZM5 9V10H4V9H5Z" fill="#FFFF00"/>
<path d="M1 7H2V9H1V7Z" fill="#FFFF00"/>
<path d="M8 2H10V3H9V4H8V2Z" fill="#C0C0C0"/>
<path d="M8 4V6H7V4H8Z" fill="#C0C0C0"/>
<path d="M3 6H2V9H3V6Z" fill="#C0C0C0"/>
<path d="M8 10H7V12H8V10Z" fill="#C0C0C0"/>
<path d="M7 7H8V8H7V7Z" fill="#C0C0C0"/>
<path d="M8 1H7V2H8V1Z" fill="#808080"/>
<path d="M3 9H2V10H3V9Z" fill="#808080"/>
<path d="M9 13H10V15H9V13Z" fill="#808080"/>
<path d="M10 13V3H11V13H10Z" fill="#808080"/>
<path d="M9 1H10V2H9V1Z" fill="#808080"/>
<path d="M8 4V3H6V4H8Z" fill="#808080"/>
<path d="M9 8V9H7V8H9Z" fill="#808080"/>
<path d="M8 13V12H6V13H8Z" fill="#808080"/>
<path d="M7 0V1H8V2H7V3H8V2H9V0H7Z" fill="black"/>
<path d="M9 7H8V6H7V4H6V12H7V10H8V9H7V7H8V8H9V7Z" fill="black"/>
<path fill-rule="evenodd" clip-rule="evenodd" d="M1 9H0V10H1V11H3V12H4V13H5V14H6V15H7V16H9V14H8V13H7V14H6V13H5V12H4V11H3V10H1V9ZM7 14H8V15H7V14Z" fill="black"/>
<path d="M10 3H9V4H8V7H9V9H8V14H9V13H10V3Z" fill="white"/>
<path fill-rule="evenodd" clip-rule="evenodd" d="M6 4H5V5H4V6H3V7H4V8H3V9H4V10H5V11H6V10H5V9H6V8H5V7H6V6H5V5H6V4ZM5 6V7H4V6H5ZM5 8H4V9H5V8Z" fill="white"/>
<path d="M1 6H2V7H1V6Z" fill="white"/>
<path d="M15 2H14V3H13V4H12V5H13V4H14V3H15V2Z" fill="#808080"/>
<path d="M16 7V8H12V7H16Z" fill="#808080"/>
<path d="M12 10H13V11H12V10Z" fill="#808080"/>
<path d="M14 12V11H13V12H14Z" fill="#808080"/>
<path d="M14 12V13H15V12H14Z" fill="#808080"/>
</svg>
