<svg width="16" height="16" viewBox="0 0 16 16" fill="none" xmlns="http://www.w3.org/2000/svg">
<path d="M2 14.5H12.5V3.5V3" stroke="#C0C0C0"/>
<path d="M2.5 2V3" stroke="white"/>
<path d="M4.5 2V3" stroke="white"/>
<path d="M6.5 2V3" stroke="white"/>
<path d="M8.5 2V3" stroke="white"/>
<path d="M10.5 2V3" stroke="white"/>
<path d="M3.5 1V2" stroke="white"/>
<path d="M5.5 1V2" stroke="white"/>
<path d="M7.5 1V2" stroke="white"/>
<path d="M9.5 1V2" stroke="white"/>
<path d="M11.5 1V2" stroke="white"/>
<path d="M12.5 2V3" stroke="white"/>
<rect x="2" y="3" width="10" height="11" fill="white"/>
<path d="M2 15.5H13" stroke="black"/>
<path d="M13.5 15V2" stroke="black"/>
<path d="M2.5 1V2" stroke="black"/>
<path d="M3.5 0V1" stroke="black"/>
<path d="M3.5 2V3" stroke="black"/>
<path d="M5.5 0V1" stroke="black"/>
<path d="M5.5 2V3" stroke="black"/>
<path d="M7.5 0V1" stroke="black"/>
<path d="M7.5 2V3" stroke="black"/>
<path d="M9.5 0V1" stroke="black"/>
<path d="M9.5 2V3" stroke="black"/>
<g filter="url(#filter0_d_19_81)">
<path d="M11.5 0V1" stroke="black"/>
</g>
<path d="M11.5 2V3" stroke="black"/>
<path d="M12.5 1V2" stroke="black"/>
<path d="M10 5.5H8" stroke="black"/>
<path d="M7 5.5H4" stroke="black"/>
<path d="M10 7.5H4" stroke="black"/>
<path d="M10 9.5H4" stroke="black"/>
<path d="M10 11.5H4" stroke="black"/>
<rect x="1" y="2" width="1" height="13" fill="#808080"/>
<defs>
<filter id="filter0_d_19_81" x="7" y="0" width="9" height="9" filterUnits="userSpaceOnUse" color-interpolation-filters="sRGB">
<feFlood flood-opacity="0" result="BackgroundImageFix"/>
<feColorMatrix in="SourceAlpha" type="matrix" values="0 0 0 0 0 0 0 0 0 0 0 0 0 0 0 0 0 0 127 0" result="hardAlpha"/>
<feOffset dy="4"/>
<feGaussianBlur stdDeviation="2"/>
<feColorMatrix type="matrix" values="0 0 0 0 0 0 0 0 0 0 0 0 0 0 0 0 0 0 0.25 0"/>
<feBlend mode="normal" in2="BackgroundImageFix" result="effect1_dropShadow_19_81"/>
<feBlend mode="normal" in="SourceGraphic" in2="effect1_dropShadow_19_81" result="shape"/>
</filter>
</defs>
</svg>
