<svg width="16" height="16" viewBox="0 0 16 16" fill="none" xmlns="http://www.w3.org/2000/svg">
<path fill-rule="evenodd" clip-rule="evenodd" d="M13 1H9V2H7V3H6V4H4V5H3V4H2V6H6V13H4V14H3V13H2V15H7V14H9V13H13V14H15V15H16V3H15V2H13V1ZM14 12V9H13V8H12V11H13V12H14ZM14 7H13V6H12V3H13V4H14V7ZM9 6H10V3H9V4H8V7H9V6ZM9 8V9H8V12H9V11H10V8H9Z" fill="black"/>
<path d="M0 3H1V5H0V3Z" fill="black"/>
<path d="M1 12H0V14H1V12Z" fill="black"/>
<path d="M10 3H9V4H8V7H9V6H10V3Z" fill="#FF0000"/>
<path d="M1 6H0V8H1V6Z" fill="#FF0000"/>
<path d="M6 7H4V8H3V7H2V9H6V7Z" fill="#FF0000"/>
<path d="M10 8H9V9H8V12H9V11H10V8Z" fill="#0000FF"/>
<path d="M1 9H0V11H1V9Z" fill="#0000FF"/>
<path d="M6 10H4V11H3V10H2V12H6V10Z" fill="#0000FF"/>
<path d="M12 3H13V4H14V7H13V6H12V3Z" fill="#00FF00"/>
<path d="M12 8H13V9H14V12H13V11H12V8Z" fill="#FFFF00"/>
</svg>
